<?xml version="1.0" standalone="no"?>
<!DOCTYPE svg PUBLIC "-//W3C//DTD SVG 20010904//EN"
 "http://www.w3.org/TR/2001/REC-SVG-20010904/DTD/svg10.dtd">
<svg version="1.0" xmlns="http://www.w3.org/2000/svg"
 width="125.000000pt" height="125.000000pt" viewBox="0 0 125.000000 125.000000"
 preserveAspectRatio="xMidYMid meet">
<metadata>
Created by potrace 1.11, written by Peter Selinger 2001-2013
</metadata>
<g transform="translate(0.000000,125.000000) scale(0.100000,-0.100000)"
fill="#000000" stroke="none">
<path d="M504 1126 c-65 -30 -128 -87 -169 -151 -42 -65 -47 -90 -46 -208 1
-79 -3 -106 -19 -137 -23 -46 -25 -114 -4 -189 9 -30 17 -75 18 -100 2 -25 6
-58 10 -72 7 -25 5 -27 -39 -38 -63 -16 -116 -53 -145 -102 -14 -22 -36 -54
-50 -71 -48 -60 -58 -58 292 -58 l320 0 -4 28 c-3 15 -9 35 -13 45 -4 10 -3
17 3 17 6 0 14 -20 18 -45 l6 -45 284 0 284 0 0 130 0 130 -24 0 c-43 0 -85
12 -90 26 -3 8 -8 36 -12 62 -6 44 -24 84 -24 52 0 -20 -82 -110 -100 -110 -9
0 -6 8 9 24 12 13 24 30 25 37 2 8 8 27 14 42 20 49 12 44 -15 -8 -14 -27 -34
-60 -44 -73 -15 -20 -18 -21 -21 -5 -2 10 6 36 18 58 16 29 23 65 27 129 4 49
4 87 2 85 -2 -3 -8 -40 -14 -84 -5 -44 -20 -104 -32 -133 -20 -47 -24 -52 -37
-38 -11 10 -12 19 -5 28 36 47 62 459 35 554 -52 178 -297 295 -458 220z m331
-251 c26 -7 71 -72 84 -122 6 -21 11 -74 11 -118 0 -77 -2 -83 -41 -142 -65
-101 -143 -140 -251 -128 l-60 7 31 29 31 28 -22 15 c-13 9 -31 13 -46 9 -23
-5 -24 -4 -17 28 l6 34 -15 -29 c-21 -37 -20 -41 6 -66 26 -24 24 -26 -24 -35
-27 -5 -38 -4 -38 5 0 7 -7 10 -15 6 -8 -3 -15 -1 -15 5 0 6 -4 8 -8 5 -17
-10 -67 66 -58 89 3 8 1 15 -4 17 -12 4 -31 162 -20 166 5 2 6 11 3 20 -4 13
-3 14 5 3 8 -11 11 -10 16 7 7 21 42 39 53 28 4 -3 0 -6 -8 -6 -17 0 -63 -64
-49 -68 6 -2 8 -8 4 -13 -11 -18 27 -9 49 12 17 16 31 20 61 16 21 -3 43 -11
47 -19 7 -10 -4 -14 -49 -16 -31 -1 -64 -5 -72 -9 -8 -3 -18 -6 -22 -5 -4 1
-5 -5 -1 -14 4 -12 14 -14 43 -9 41 7 107 9 130 3 22 -5 20 41 -3 75 -11 16
-30 33 -43 39 -31 14 -30 26 1 34 14 3 25 10 25 14 0 4 23 13 50 20 30 7 50
17 50 26 0 8 4 14 9 14 5 0 17 7 25 15 19 20 86 45 106 40 8 -2 24 -6 35 -10z
m93 -601 c-12 -13 -23 -24 -24 -24 -1 0 3 16 9 35 8 26 13 32 23 24 10 -8 8
-15 -8 -35z"/>
<path d="M711 726 c-19 -7 -37 -18 -39 -26 -4 -10 0 -11 14 -5 11 4 50 10 87
13 59 4 66 6 50 18 -22 16 -67 17 -112 0z"/>
<path d="M717 653 c-18 -17 -6 -33 21 -28 73 13 85 17 71 26 -16 10 -83 12
-92 2z"/>
<path d="M668 443 c7 -3 16 -2 19 1 4 3 -2 6 -13 5 -11 0 -14 -3 -6 -6z"/>
</g>
</svg>
