<?xml version="1.0"?>
<svg xmlns="http://www.w3.org/2000/svg" viewBox="0 0 64 64" width="512" height="512"><g id="outline"><path d="M35.926,62h7.956c3.313.049,5.852-.817,7.556-2.507S54,55.286,54,52A8.122,8.122,0,0,0,53.363,48a4.451,4.451,0,0,0-1.053-1.157c-.182-.154-.383-.325-.6-.545-1.571-1.572-2.741-3.989-1.812-5.846l.986-1.973a8.926,8.926,0,0,0,.02-8.753A7.786,7.786,0,0,0,44,26h-.437l-.156-5H46a1,1,0,0,0,1-1V16a1,1,0,0,0-1-1H43.219l-.062-2H46a1,1,0,0,0,1-1V8a1,1,0,0,0-1-1H43V5a3.015,3.015,0,0,0-3-3,3,3,0,0,0-3,3V7H34a1,1,0,0,0-1,1v4a1,1,0,0,0,1,1h2.843l-.062,2H34a1,1,0,0,0-1,1v4a1,1,0,0,0,1,1h2.593l-.156,5H36a7.668,7.668,0,0,0-6.71,3.837,9.931,9.931,0,0,0-.185,9.61l1,2a2.713,2.713,0,0,1,.315,1.233c0,1.028-.656,2.142-2.127,3.613a9.423,9.423,0,0,1-.818.72C26.193,48.043,26,48.7,26,52s.864,5.836,2.567,7.52C30.234,61.167,32.713,62,35.926,62ZM45,17v2H43.344l-.062-2Zm0-8v2H43.094l-.062-2ZM42.94,56H41V54h1.822ZM42.7,52H41V41h1.057ZM39,8V5a1,1,0,0,1,1-1,.974.974,0,0,1,.712.306A.957.957,0,0,1,41,5V8l.969,31H38.032ZM37.943,41H39V52H37.3Zm-.765,13H39v2H37.06ZM35,11V9h1.968l-.062,2Zm0,8V17h1.718l-.062,2ZM28.728,48.572a11.033,11.033,0,0,0,.979-.865c1.263-1.263,2.713-2.976,2.713-5.027a4.741,4.741,0,0,0-.525-2.127l-1.014-2.027a7.907,7.907,0,0,1,.125-7.663A5.64,5.64,0,0,1,36,28h.375L35.293,52H33a1,1,0,0,0-1,1v4a1,1,0,0,0,1,1H47a1,1,0,0,0,1-1V53a1,1,0,0,0-1-1H44.707L43.625,28H44a5.761,5.761,0,0,1,5.184,2.747,6.936,6.936,0,0,1-.079,6.806l-1,2c-1.468,2.936.261,6.227,2.188,8.154.263.263.5.468.718.652a2.7,2.7,0,0,1,.62.636A7.165,7.165,0,0,1,52,52c0,2.732-.663,4.776-1.971,6.073S46.649,60.03,43.89,60H36.138c-2.816.046-4.835-.589-6.165-1.9C28.664,56.8,28,54.751,28,52,28,49.157,28.1,49.079,28.728,48.572ZM35.175,54l-.118,2H34V54Zm9.65,0H46v2H44.943Z"/><path d="M15,62h8a1,1,0,0,0,1-1V5a2.993,2.993,0,0,0-5.816-1H17a3,3,0,0,0,0,6h1V55H15a1,1,0,0,0-1,1v5A1,1,0,0,0,15,62ZM20,5a1,1,0,0,1,2,0V60H20ZM17,8a1,1,0,0,1,0-2h1V8ZM16,57h2v3H16Z"/></g></svg>
